<?xml version="1.0" encoding="utf-8"?>
<!-- Generator: Adobe Illustrator 16.0.0, SVG Export Plug-In . SVG Version: 6.00 Build 0)  -->
<!DOCTYPE svg PUBLIC "-//W3C//DTD SVG 1.1//EN" "http://www.w3.org/Graphics/SVG/1.1/DTD/svg11.dtd">
<svg version="1.1" id="Layer_1" xmlns="http://www.w3.org/2000/svg" xmlns:xlink="http://www.w3.org/1999/xlink" x="0px" y="0px"
	 width="80px" height="1050px" viewBox="0 400 80 1050" enable-background="new 0 0 80 1050" xml:space="preserve">
<path fill="#555555" d="M13.786,411.814l-3.152-3.15c-0.237-0.237-0.598-0.277-0.876-0.137l-0.673-0.682
	c0.572-0.812,0.914-1.812,0.914-2.855C9.994,402.25,7.753,400,4.997,400S0,402.25,0,405.001c0,2.752,2.241,4.995,4.997,4.995
	c1.063,0,2.048-0.334,2.858-0.903l0.679,0.688c-0.146,0.27-0.104,0.633,0.13,0.853l3.15,3.148c0.289,0.29,0.76,0.29,1.045,0
	l0.927-0.914C14.07,412.572,14.07,412.102,13.786,411.814z M4.997,408.15c-1.737,0-3.146-1.412-3.146-3.129
	c0-1.732,1.41-3.146,3.146-3.146c1.737,0,3.147,1.412,3.147,3.146C8.146,406.74,6.734,408.15,4.997,408.15z"/>
</svg>
